HIERARCHY
ROOT Hips
{
	OFFSET -0.001795 -0.223333 0.028219
	CHANNELS 6 Xposition Yposition Zposition Zrotation Yrotation Xrotation 
	JOINT LeftUpLeg
	{
		OFFSET 0.069520 -0.091406 -0.006815
		CHANNELS 3 Zrotation Yrotation Xrotation
		JOINT LeftLeg
		{
			OFFSET 0.034277 -0.375199 -0.004496
			CHANNELS 3 Zrotation Yrotation Xrotation
			JOINT LeftFoot
			{
				OFFSET -0.013596 -0.397961 -0.043693
				CHANNELS 3 Zrotation Yrotation Xrotation
				JOINT LeftToe
				{
					OFFSET 0.026358 -0.055791 0.119288
					CHANNELS 3 Zrotation Yrotation Xrotation
					End Site
					{
						OFFSET 0.000000 0.000000 0.000000
					}
				}
			}
		}
	}
	JOINT RightUpLeg
	{
		OFFSET -0.067670 -0.090522 -0.004320
		CHANNELS 3 Zrotation Yrotation Xrotation
		JOINT RightLeg
		{
			OFFSET -0.038290 -0.382569 -0.008850
			CHANNELS 3 Zrotation Yrotation Xrotation
			JOINT RightFoot
			{
				OFFSET 0.015774 -0.398415 -0.042312
				CHANNELS 3 Zrotation Yrotation Xrotation
				JOINT RightToe
				{
					OFFSET -0.025372 -0.048144 0.123348
					CHANNELS 3 Zrotation Yrotation Xrotation
					End Site
					{
						OFFSET 0.000000 0.000000 0.000000
					}
				}
			}
		}
	}
	JOINT Spine
	{
		OFFSET -0.002533 0.108963 -0.026696
		CHANNELS 3 Zrotation Yrotation Xrotation
		JOINT Spine1
		{
			OFFSET 0.005487 0.135180 0.001092
			CHANNELS 3 Zrotation Yrotation Xrotation
			JOINT Spine2
			{
				OFFSET 0.001457 0.052922 0.025425
				CHANNELS 3 Zrotation Yrotation Xrotation
				JOINT Neck
				{
					OFFSET -0.002778 0.213870 -0.042857
					CHANNELS 3 Zrotation Yrotation Xrotation
					JOINT Head
					{
						OFFSET 0.005152 0.064970 0.051349
						CHANNELS 3 Zrotation Yrotation Xrotation
						End Site
						{
							OFFSET 0.000000 0.000000 0.000000
						}
					}
				}
				JOINT LeftShoulder
				{
					OFFSET 0.078845 0.121749 -0.034090
					CHANNELS 3 Zrotation Yrotation Xrotation
					JOINT LeftArm
					{
						OFFSET 0.090977 0.030469 -0.008868
						CHANNELS 3 Zrotation Yrotation Xrotation
						JOINT LeftForeArm
						{
							OFFSET 0.259612 -0.012772 -0.027456
							CHANNELS 3 Zrotation Yrotation Xrotation
							JOINT LeftHand
							{
								OFFSET 0.249234 0.008986 -0.001171
								CHANNELS 3 Zrotation Yrotation Xrotation
								End Site
								{
									OFFSET 0.000000 0.000000 0.000000
								}
							}
						}
					}
				}
				JOINT RightShoulder
				{
					OFFSET -0.081759 0.118833 -0.038615
					CHANNELS 3 Zrotation Yrotation Xrotation
					JOINT RightArm
					{
						OFFSET -0.096012 0.032551 -0.009143
						CHANNELS 3 Zrotation Yrotation Xrotation
						JOINT RightForeArm
						{
							OFFSET -0.253742 -0.013329 -0.021401
							CHANNELS 3 Zrotation Yrotation Xrotation
							JOINT RightHand
							{
								OFFSET -0.255298 0.007772 -0.005559
								CHANNELS 3 Zrotation Yrotation Xrotation
								End Site
								{
									OFFSET 0.000000 0.000000 0.000000
								}
							}
						}
					}
				}
			}
		}
	}
}
MOTION
Frames: 17
Frame Time: 0.050000
0.000000 0.928334 0.000000 -2.046689 -6.279625 6.163409 8.382380 -0.253243 -12.788969 -5.700226 0.933943 8.845699 7.564231 16.043065 6.705738 0.000000 0.000000 0.000000 -8.867052 0.908331 -15.167358 7.984397 -0.940233 10.872409 -7.518070 -19.339152 9.831369 0.000000 0.000000 0.000000 2.836658 -1.360903 23.960996 -6.464283 2.244913 -16.285816 -1.744338 6.486252 23.593046 14.046610 -6.959569 -21.775576 0.000000 0.000000 0.000000 -7.284413 -24.790618 9.685467 -20.240365 -41.025983 1.728237 77.317628 -71.635715 -56.116041 0.000000 0.000000 0.000000 14.850150 13.502278 6.642239 16.553869 36.572394 0.553553 -48.138724 33.541264 -12.413557 0.000000 0.000000 0.000000 
-0.000299 0.927628 0.000335 -2.374879 -6.685732 6.405693 8.566612 -0.227275 -12.786594 -5.442367 0.900321 9.160414 6.880364 14.818823 6.854520 0.000000 0.000000 0.000000 -8.388267 0.967894 -15.324274 7.518758 -0.831662 9.933270 -6.928813 -18.443734 11.360584 0.000000 0.000000 0.000000 2.643664 -1.306390 24.203060 -5.385014 1.899173 -16.497138 -2.303083 7.674746 24.629945 16.213844 -8.131374 -22.374583 0.000000 0.000000 0.000000 -8.169589 -24.242531 9.488820 -18.909350 -42.501608 1.404338 85.141551 -72.778666 -64.313854 0.000000 0.000000 0.000000 14.369364 11.878901 5.988380 14.736888 38.788228 0.268082 -46.524571 29.381247 -10.086243 0.000000 0.000000 0.000000 
-0.000315 0.925570 0.000487 -2.530996 -7.183333 6.492165 9.304941 -0.117942 -14.214949 -6.136459 1.159115 11.532041 7.821507 16.447975 6.174168 0.000000 0.000000 0.000000 -8.396095 1.031896 -16.349815 7.985868 -0.908223 10.930801 -6.729630 -18.116696 11.049573 0.000000 0.000000 0.000000 3.189622 -1.425375 24.454326 -4.759346 1.698175 -16.095066 -3.765333 9.453770 24.469295 17.822774 -9.097511 -21.773269 0.000000 0.000000 0.000000 -9.054796 -25.710368 9.992537 -18.432614 -41.897805 1.205175 84.112351 -72.765532 -63.945220 0.000000 0.000000 0.000000 15.579149 12.056510 6.583514 10.092649 39.325412 -0.851875 -46.734069 26.129452 -8.792496 0.000000 0.000000 0.000000 
-0.000534 0.925294 0.000832 -2.634703 -8.025561 6.355867 9.584884 -0.050264 -14.208580 -6.121585 1.219129 12.268124 7.905942 16.564590 6.364674 0.000000 0.000000 0.000000 -8.403948 1.076210 -16.753981 7.704201 -0.837119 11.603999 -6.859690 -18.459125 11.439376 0.000000 0.000000 0.000000 3.435401 -1.452114 24.942541 -5.853044 2.045078 -15.494019 -4.044689 9.359459 24.664342 18.290122 -9.572578 -21.531761 0.000000 0.000000 0.000000 -8.557266 -25.947321 10.093062 -18.604528 -41.374040 1.206082 87.769607 -73.169568 -67.584400 0.000000 0.000000 0.000000 15.664829 11.057670 5.963256 7.806595 40.124688 -1.412741 -46.311678 23.708587 -7.847837 0.000000 0.000000 0.000000 
-0.000844 0.923835 0.001391 -2.633280 -8.933471 6.203096 9.579701 -0.005238 -14.545667 -5.996669 1.270056 13.225259 8.183759 17.021063 6.126055 0.000000 0.000000 0.000000 -8.440527 1.121880 -17.156950 7.836044 -0.832477 12.122852 -6.549444 -18.035404 11.763856 0.000000 0.000000 0.000000 3.340657 -1.407452 26.065221 -5.930916 2.026804 -16.220881 -4.377666 9.569377 25.187243 18.102870 -9.415600 -21.857149 0.000000 0.000000 0.000000 -8.521761 -26.290254 10.268820 -18.580128 -40.362039 1.084285 90.638584 -72.133331 -69.241486 0.000000 0.000000 0.000000 15.823170 11.643411 6.232911 5.122129 39.508078 -2.082039 -46.183308 22.849564 -7.649731 0.000000 0.000000 0.000000 
-0.001248 0.923849 0.001923 -2.637094 -9.217744 6.491748 9.357183 -0.028836 -14.823097 -6.052936 1.300158 13.325280 8.244696 17.125133 6.066996 0.000000 0.000000 0.000000 -8.458129 1.148295 -17.399841 7.737255 -0.803498 11.996682 -6.497207 -17.933652 11.469178 0.000000 0.000000 0.000000 3.452264 -1.431228 26.389689 -6.197487 2.092687 -16.513803 -4.525677 9.416115 25.489760 18.260098 -9.512458 -22.090244 0.000000 0.000000 0.000000 -8.511852 -26.867479 10.569768 -18.271177 -39.710080 0.938176 92.609748 -71.355129 -70.229833 0.000000 0.000000 0.000000 15.931488 11.798630 6.280899 2.105441 38.727375 -2.784953 -45.627001 22.859637 -7.702621 0.000000 0.000000 0.000000 
-0.001613 0.924010 0.002465 -2.646977 -9.619182 6.747913 9.366676 -0.013833 -14.925027 -5.834009 1.247719 13.059358 8.316430 17.229612 6.292271 0.000000 0.000000 0.000000 -8.281245 1.196276 -17.653627 7.359328 -0.719624 12.069796 -6.221420 -17.467786 11.274540 0.000000 0.000000 0.000000 3.565712 -1.446219 26.793785 -6.189434 2.065498 -16.955841 -4.853985 9.099267 25.723676 18.205670 -9.418208 -22.552086 0.000000 0.000000 0.000000 -8.393943 -26.655185 10.548745 -18.320812 -39.175686 0.895089 95.642909 -70.412531 -71.967680 0.000000 0.000000 0.000000 15.227971 11.920259 6.151076 0.377899 38.621887 -3.187958 -44.481125 22.769755 -7.546832 0.000000 0.000000 0.000000 
-0.001986 0.924841 0.002798 -2.659799 -9.987175 7.236665 9.415695 0.000541 -15.106670 -5.674233 1.209608 12.811901 8.279805 17.142699 6.492052 0.000000 0.000000 0.000000 -8.067654 1.265855 -18.162895 7.146605 -0.667103 12.025335 -6.081924 -17.233826 11.032721 0.000000 0.000000 0.000000 3.878492 -1.507957 26.696538 -6.385023 2.114333 -16.862180 -5.172018 8.837921 25.668015 18.688985 -9.705573 -22.824294 0.000000 0.000000 0.000000 -8.391530 -26.736943 10.665545 -17.862422 -38.787656 0.758430 97.603013 -69.114732 -72.352949 0.000000 0.000000 0.000000 14.867711 11.959785 6.038796 -1.421342 38.577484 -3.620227 -42.664718 23.030386 -7.373842 0.000000 0.000000 0.000000 
-0.002291 0.925631 0.002961 -2.773381 -10.451330 7.624539 9.417002 0.014362 -15.162775 -5.460349 1.156670 12.460356 8.410483 17.338511 6.892561 0.000000 0.000000 0.000000 -7.811227 1.333277 -18.508786 6.907659 -0.607944 11.852576 -5.795883 -16.811843 11.240096 0.000000 0.000000 0.000000 4.065595 -1.537624 26.967755 -6.366187 2.081335 -17.294322 -5.353353 8.652180 25.784134 18.929986 -9.627327 -23.815791 0.000000 0.000000 0.000000 -8.060278 -26.759745 10.689246 -17.732265 -38.884764 0.742822 98.389440 -67.365262 -71.119564 0.000000 0.000000 0.000000 14.271853 12.226938 6.018981 -2.884456 38.553693 -3.974566 -40.439073 22.987453 -6.982537 0.000000 0.000000 0.000000 
-0.002546 0.926248 0.003052 -2.811495 -11.069952 8.035589 9.445123 0.040053 -15.333858 -5.319316 1.134302 12.252217 8.552648 17.547032 7.171013 0.000000 0.000000 0.000000 -7.596075 1.407072 -18.893607 6.757297 -0.561005 11.629129 -5.729401 -16.751864 11.158197 0.000000 0.000000 0.000000 4.246479 -1.548512 26.964444 -6.479071 2.091289 -17.445670 -5.716695 8.411699 25.723039 19.259071 -9.689930 -24.500797 0.000000 0.000000 0.000000 -7.827030 -26.902485 10.795592 -17.468445 -39.097392 0.720864 97.951936 -66.051467 -69.137607 0.000000 0.000000 0.000000 13.889322 12.595418 6.051835 -4.248102 38.758618 -4.350292 -38.164320 22.760841 -6.515352 0.000000 0.000000 0.000000 
-0.002831 0.926534 0.003350 -2.770208 -11.197611 8.373387 9.425825 0.040289 -15.533694 -5.414211 1.147958 11.960370 8.773251 17.911707 7.456644 0.000000 0.000000 0.000000 -7.788600 1.428991 -19.308174 6.851755 -0.571935 11.743874 -5.500211 -16.371891 11.187402 0.000000 0.000000 0.000000 4.411871 -1.592181 27.122160 -6.707673 2.155593 -17.386449 -5.873670 8.137646 25.362176 19.844107 -9.934270 -24.917944 0.000000 0.000000 0.000000 -7.294395 -27.498084 10.984494 -17.256963 -39.750211 0.776174 95.716621 -65.098415 -65.966332 0.000000 0.000000 0.000000 13.777637 12.953378 6.155409 -5.630282 38.839618 -4.706883 -35.878835 22.529746 -6.026430 0.000000 0.000000 0.000000 
-0.003259 0.926549 0.004068 -2.782990 -11.444162 8.450750 9.457224 0.050773 -15.401449 -5.532725 1.178369 11.797041 8.865141 18.062884 7.461900 0.000000 0.000000 0.000000 -7.911067 1.443185 -19.519518 6.801107 -0.554585 11.839645 -5.400609 -16.222883 11.193063 0.000000 0.000000 0.000000 4.755226 -1.668032 27.129190 -6.788104 2.167817 -17.535629 -6.306867 8.001609 25.283331 20.364969 -10.162645 -25.353622 0.000000 0.000000 0.000000 -7.558610 -27.776039 11.193075 -17.063416 -40.195407 0.786392 93.885154 -64.869763 -63.983635 0.000000 0.000000 0.000000 14.032217 13.655734 6.475244 -7.010151 38.696785 -5.034073 -33.172979 22.062475 -5.415923 0.000000 0.000000 0.000000 
-0.003768 0.926543 0.005202 -2.693000 -11.535264 8.558573 9.464744 0.053390 -15.379795 -5.486386 1.150992 11.411941 9.030312 18.318478 7.860632 0.000000 0.000000 0.000000 -8.085983 1.437727 -19.587158 6.674287 -0.530062 11.778894 -5.202906 -15.889588 11.241546 0.000000 0.000000 0.000000 4.978853 -1.717248 26.967109 -6.880447 2.191504 -17.544065 -6.559155 7.820938 25.067346 20.631433 -10.236587 -25.636322 0.000000 0.000000 0.000000 -7.752921 -28.240112 11.464575 -17.154664 -40.504559 0.869811 91.614475 -65.471434 -62.467625 0.000000 0.000000 0.000000 13.857290 13.948900 6.552254 -7.836643 39.020974 -5.300190 -30.431080 21.070207 -4.657182 0.000000 0.000000 0.000000 
-0.004298 0.926520 0.006525 -2.597929 -11.472991 8.588636 9.561580 0.059222 -15.152354 -5.535405 1.136437 10.909404 8.974987 18.210855 8.073158 0.000000 0.000000 0.000000 -8.356116 1.410466 -19.562536 6.589834 -0.518089 11.716230 -5.027785 -15.580655 11.302703 0.000000 0.000000 0.000000 5.339295 -1.811716 26.800060 -7.006495 2.232398 -17.469732 -6.840374 7.517566 24.767716 21.003074 -10.344976 -26.067950 0.000000 0.000000 0.000000 -8.037382 -28.523495 11.686255 -17.144057 -40.464493 0.894686 89.880758 -66.460442 -61.830737 0.000000 0.000000 0.000000 13.678469 14.385289 6.684884 -8.480427 38.492410 -5.360238 -27.510847 19.930918 -3.901340 0.000000 0.000000 0.000000 
-0.004679 0.926587 0.007613 -2.473082 -11.455708 8.354156 9.610297 0.061797 -14.844857 -5.621522 1.146091 10.701201 8.953777 18.176122 8.098272 0.000000 0.000000 0.000000 -8.578075 1.381606 -19.509259 6.491312 -0.501810 11.849568 -4.959784 -15.445965 11.283093 0.000000 0.000000 0.000000 5.529343 -1.855438 26.725258 -7.042791 2.249581 -17.407805 -6.905503 7.384340 24.783451 20.990941 -10.363393 -26.017349 0.000000 0.000000 0.000000 -8.112914 -28.758663 11.812966 -17.494966 -40.379198 0.990738 89.667065 -67.828887 -62.950078 0.000000 0.000000 0.000000 13.126665 14.705143 6.745421 -9.326444 38.120605 -5.483485 -24.815746 18.122645 -3.109960 0.000000 0.000000 0.000000 
-0.004791 0.927119 0.008315 -2.314358 -11.352646 8.294674 9.772120 0.081389 -14.844091 -5.730180 1.165447 10.637900 8.795415 17.902905 8.121384 0.000000 0.000000 0.000000 -8.716081 1.367736 -19.578502 6.373370 -0.483856 11.981900 -4.926023 -15.383572 11.322365 0.000000 0.000000 0.000000 5.906184 -1.950728 26.522002 -7.095578 2.274690 -17.292065 -7.112103 7.095088 24.835247 20.719309 -10.373614 -25.541995 0.000000 0.000000 0.000000 -8.125609 -28.912068 11.917271 -17.220885 -39.712410 0.874262 89.956541 -68.507897 -63.850606 0.000000 0.000000 0.000000 12.275201 14.821391 6.653127 -10.179348 37.543997 -5.570679 -22.544079 16.018389 -2.413175 0.000000 0.000000 0.000000 
-0.004708 0.927162 0.008680 -2.031802 -11.399156 8.260929 9.661619 0.066345 -14.815114 -5.956029 1.219321 10.605385 8.788747 17.888312 8.157213 0.000000 0.000000 0.000000 -9.048053 1.350177 -19.773937 6.420027 -0.486441 12.423299 -4.899291 -15.290520 11.084049 0.000000 0.000000 0.000000 6.203212 -2.022440 26.562773 -7.239539 2.315207 -17.367865 -7.204789 6.970242 25.153347 20.636422 -10.482554 -25.200545 0.000000 0.000000 0.000000 -8.119788 -29.193217 12.061158 -16.549099 -38.817608 0.631364 91.366653 -68.744769 -65.396908 0.000000 0.000000 0.000000 11.579815 14.978068 6.618566 -11.369037 37.060049 -5.756404 -21.334368 13.668174 -1.881857 0.000000 0.000000 0.000000 
